<svg width="866" height="822" viewBox="0 0 866 822" fill="none" xmlns="http://www.w3.org/2000/svg">
<path d="M539.919 365.931C490.721 340.496 432.717 341.836 384.758 369.526C336.799 397.215 306.636 446.778 304.069 502.099L297.874 635.409C296.845 657.525 302.839 678.934 315.196 697.306C327.555 715.683 345.123 729.297 366.005 736.692C386.888 744.068 409.114 744.518 430.282 737.997C451.45 731.475 469.565 718.581 482.672 700.722L483.546 699.52C516.748 654.967 567.35 625.987 622.621 619.922C636.878 618.356 650.384 613.928 662.54 606.91C669.15 603.094 675.365 598.505 681.086 593.201C697.321 578.134 708.044 558.66 712.099 536.88C716.148 515.109 713.144 493.081 703.41 473.182C693.677 453.283 678.136 437.393 658.464 427.217L539.919 365.931Z" fill="#FFBD54"/>
<path d="M258.424 528.283C272.865 510.443 278.328 487.352 273.806 463.263C269.506 440.338 256.537 419.142 237.281 403.576C218.028 388.027 194.585 379.794 171.265 380.39C146.772 381.02 125.338 391.195 110.936 409.03C81.9401 444.876 91.4271 500.804 132.101 533.724C164.522 559.899 207.07 563.672 237.681 545.999C245.497 541.486 252.534 535.574 258.424 528.283Z" fill="#FFBD54"/>
<path d="M335.433 382.181C382.023 355.282 394.995 290.214 364.349 237.133C333.696 184.039 270.854 162.731 224.264 189.629C177.679 216.525 164.716 281.6 195.369 334.694C226.015 387.774 288.848 409.077 335.433 382.181Z" fill="#FFBD54"/>
<path d="M495.01 321.583L495.014 321.58C503.554 319.821 511.522 316.737 518.803 312.533C552.779 292.917 571.614 249.069 562.306 203.769C556.952 177.691 543.118 154.834 523.355 139.415C502.67 123.27 478.048 117.099 454.017 122.038C429.983 126.979 409.789 142.365 397.148 165.358C385.071 187.322 381.376 213.78 386.739 239.853C398.046 294.859 446.617 331.523 495.01 321.583Z" fill="#FFBD54"/>
<path d="M666.46 207.616L666.44 207.61C620.608 202.426 578.496 240.456 572.564 292.401C566.669 344.349 599.137 390.865 644.93 396.095C661.635 398.007 677.851 394.169 692 386C716.659 371.762 735.049 344.363 738.836 311.316C744.727 259.371 712.263 212.851 666.46 207.616Z" fill="#FFBD54"/>
</svg>
